PathFileType	4	(X/Y/Z)	RBDS013static.trc
DataRate	CameraRate	NumFrames	NumMarkers	Units	OrigDataRate	OrigDataStartFrame	OrigNumFrames
150.000000	150.000000	4	48	mm	150.000000	112	150
Frame#	Time	L.Ankle			L.Ankle.Medial			L.ASIS			L.GTR			L.Heel.Bottom			L.Heel.Lateral			L.Heel.Top			L.HF			L.Iliac.Crest			L.Knee			L.Knee.Medial			L.MT1			L.MT2			L.MT5			L.PSIS			L.Shank.Bottom.Lateral			L.Shank.Bottom.Medial			L.Shank.Top.Lateral			L.Shank.Top.Medial			L.Thigh.Bottom.Lateral			L.Thigh.Bottom.Medial			L.Thigh.Top.Lateral			L.Thigh.Top.Medial			L.TT			R.Ankle			R.Ankle.Medial			R.ASIS			R.GTR			R.Heel.Bottom			R.Heel.Lateral			R.Heel.Top			R.HF			R.Iliac.Crest			R.Knee			R.Knee.Medial			R.MT1			R.MT2			R.MT5			R.PSIS			R.Shank.Bottom.Lateral			R.Shank.Bottom.Medial			R.Shank.Top.Lateral			R.Shank.Top.Medial			R.Thigh.Bottom.Lateral			R.Thigh.Bottom.Medial			R.Thigh.Top.Lateral			R.Thigh.Top.Medial			R.TT			
		X1	Y1	Z1	X2	Y2	Z2	X3	Y3	Z3	X4	Y4	Z4	X5	Y5	Z5	X6	Y6	Z6	X7	Y7	Z7	X8	Y8	Z8	X9	Y9	Z9	X10	Y10	Z10	X11	Y11	Z11	X12	Y12	Z12	X13	Y13	Z13	X14	Y14	Z14	X15	Y15	Z15	X16	Y16	Z16	X17	Y17	Z17	X18	Y18	Z18	X19	Y19	Z19	X20	Y20	Z20	X21	Y21	Z21	X22	Y22	Z22	X23	Y23	Z23	X24	Y24	Z24	X25	Y25	Z25	X26	Y26	Z26	X27	Y27	Z27	X28	Y28	Z28	X29	Y29	Z29	X30	Y30	Z30	X31	Y31	Z31	X32	Y32	Z32	X33	Y33	Z33	X34	Y34	Z34	X35	Y35	Z35	X36	Y36	Z36	X37	Y37	Z37	X38	Y38	Z38	X39	Y39	Z39	X40	Y40	Z40	X41	Y41	Z41	X42	Y42	Z42	X43	Y43	Z43	X44	Y44	Z44	X45	Y45	Z45	X46	Y46	Z46	X47	Y47	Z47	X48	Y48	Z48	

113	0.7466666666666667	705.5311279296875	102.9220123291016	1048.63818359375	723.5557250976563	115.4756851196289	1129.910522460938	814.53125	938.3558349609375	1112.321655273438	736.06103515625	849.558837890625	1064.94677734375	632.9382934570313	40.13599014282227	1092.463989257813	656.3934936523438	64.24343872070313	1051.21484375	641.67138671875	87.38336944580078	1091.980346679688	743.02392578125	437.3741760253906	1058.2412109375	757.2512817382813	1002.056762695313	1082.241455078125	745.9856567382813	493.648193359375	1062.2568359375	737.2120361328125	479.4890441894531	1183.456665039063	842.3197021484375	60.05757522583008	1128.681762695313	853.8870849609375	71.81365966796875	1086.130737304688	814.5477905273438	44.34833145141602	1020.469116210938	653.45556640625	973.6077880859375	1185.016967773438	702.0712280273438	176.7318267822266	1044.678955078125	661.1528930664063	176.5907745361328	1081.914672851563	694.9129638671875	257.0735473632813	1038.840576171875	656.3272705078125	257.4500732421875	1076.239135742188	764.7514038085938	592.7472534179688	1045.450561523438	698.9366455078125	589.944580078125	1077.542724609375	753.6594848632813	702.3443603515625	1039.881225585938	692.322021484375	700.1761474609375	1071.07958984375	785.3843994140625	414.7397155761719	1099.910034179688	712.1109008789063	101.9981384277344	1413.507934570313	732.6132202148438	115.1117782592773	1333.223022460938	823.3471069335938	940.778564453125	1348.627075195313	755.6380615234375	851.44921875	1401.614379882813	638.3486938476563	40.57392120361328	1370.6337890625	662.5458984375	61.19029235839844	1410.382934570313	646.9838256835938	91.54689788818359	1369.8505859375	747.5833129882813	436.6952514648438	1406.028076171875	772.7854614257813	1003.72119140625	1380.18212890625	743.34326171875	501.3650512695313	1401.466186523438	743.2160034179688	479.5179138183594	1281.63720703125	845.3101196289063	59.06668853759766	1331.235595703125	852.3377685546875	77.72728729248047	1365.152221679688	819.239990234375	52.12810897827148	1441.5048828125	654.6296997070313	974.6160888671875	1285.627197265625	700.4749145507813	172.8179931640625	1416.918701171875	664.753173828125	174.6602172851563	1380.06591796875	696.417236328125	257.427734375	1423.220947265625	658.9182739257813	255.1946563720703	1384.620849609375	749.3601684570313	628.5783081054688	1418.828247070313	692.1950073242188	621.0874633789063	1372.742553710938	734.3207397460938	737.2047119140625	1414.9970703125	681.0641479492188	730.9878540039063	1370.640991210938	787.99462890625	413.08056640625	1367.382080078125	
114	0.7533333333333334	705.5330810546875	102.9321670532227	1048.625122070313	723.5569458007813	115.4825668334961	1129.913208007813	814.5411376953125	938.3501586914063	1112.324584960938	736.0872192382813	849.55126953125	1064.946044921875	632.9367065429688	40.13903427124023	1092.485595703125	656.3927001953125	64.25003814697266	1051.216796875	641.6698608398438	87.38564300537109	1091.977172851563	743.1058959960938	437.3552856445313	1058.22705078125	757.2727661132813	1002.052612304688	1082.240356445313	746.0387573242188	493.6475524902344	1062.257202148438	737.2449951171875	479.495849609375	1183.453002929688	842.328857421875	60.05764389038086	1128.682983398438	853.8768920898438	71.80966949462891	1086.132446289063	814.55322265625	44.3438606262207	1020.467590332031	653.4730224609375	973.6055297851563	1185.018432617188	702.0904541015625	176.7352294921875	1044.678466796875	661.156982421875	176.6040954589844	1081.912719726563	694.9434204101563	257.0726623535156	1038.836547851563	656.3558349609375	257.4577941894531	1076.221435546875	764.7930297851563	592.7390747070313	1045.450927734375	698.9730834960938	589.9298706054688	1077.552978515625	753.6864624023438	702.3411254882813	1039.880615234375	692.3388671875	700.1751098632813	1071.081176757813	785.4222412109375	414.7236938476563	1099.89794921875	712.111328125	102.0043182373047	1413.507934570313	732.6193237304688	115.1089019775391	1333.215942382813	823.3685302734375	940.7732543945313	1348.630615234375	755.6525268554688	851.433349609375	1401.607788085938	638.3565063476563	40.57304000854492	1370.63232421875	662.5476684570313	61.19459533691406	1410.38720703125	646.9827270507813	91.55264282226563	1369.85498046875	747.5820922851563	436.6936340332031	1406.054565429688	772.8081665039063	1003.716918945313	1380.182739257813	743.3599243164063	501.3572387695313	1401.471801757813	743.2169799804688	479.5259094238281	1281.628295898438	845.299072265625	58.99825286865234	1331.3271484375	852.334716796875	77.73234558105469	1365.155029296875	819.2482299804688	52.13116836547852	1441.494140625	654.6494750976563	974.6144409179688	1285.630493164063	700.4771118164063	172.8180389404297	1416.91357421875	664.7506713867188	174.6620941162109	1380.055908203125	696.4193725585938	257.4268493652344	1423.221801757813	658.9229736328125	255.1891632080078	1384.625366210938	749.3688354492188	628.570556640625	1418.82763671875	692.2009887695313	621.0828857421875	1372.741577148438	734.3336791992188	737.203125	1414.999877929688	681.0844116210938	730.9854736328125	1370.633178710938	787.9913330078125	413.0813903808594	1367.387084960938	
115	0.76	705.5364379882813	102.9349517822266	1048.634155273438	723.5628662109375	115.4802856445313	1129.90771484375	814.5613403320313	938.3538208007813	1112.325561523438	736.1111450195313	849.5484008789063	1064.955200195313	632.9301147460938	40.14628982543945	1092.462036132813	656.3930053710938	64.25186920166016	1051.223876953125	641.6768798828125	87.38356018066406	1091.980224609375	743.1354370117188	437.3501281738281	1058.220336914063	757.2831420898438	1002.052368164063	1082.248413085938	746.0965576171875	493.6485900878906	1062.242309570313	737.2874145507813	479.4928894042969	1183.458984375	842.3233642578125	60.05613708496094	1128.680419921875	853.8892211914063	71.79596710205078	1086.138427734375	814.5472412109375	44.34292602539063	1020.468566894531	653.4822387695313	973.5997924804688	1185.0166015625	702.1084594726563	176.7399139404297	1044.680786132813	661.1717529296875	176.6131286621094	1081.913940429688	694.9774780273438	257.0751037597656	1038.832641601563	656.3795166015625	257.4651489257813	1076.22314453125	764.8268432617188	592.73974609375	1045.453979492188	699.0133666992188	589.92822265625	1077.546264648438	753.7086791992188	702.3391723632813	1039.879028320313	692.3687133789063	700.1544189453125	1071.084228515625	785.4609375	414.7361755371094	1099.913940429688	712.1143798828125	102.001350402832	1413.518676757813	732.6227416992188	115.1145629882813	1333.22216796875	823.3837890625	940.7611083984375	1348.622314453125	755.6646728515625	851.4195556640625	1401.614624023438	638.3484497070313	40.57326889038086	1370.630615234375	662.545166015625	61.18510818481445	1410.38525390625	646.9793701171875	91.55159759521484	1369.846923828125	747.36474609375	436.7409973144531	1406.670166015625	772.8295288085938	1003.707153320313	1380.173828125	743.3609008789063	501.3568115234375	1401.46923828125	743.2214965820313	479.5348205566406	1281.627685546875	845.2969360351563	58.99186325073242	1331.331176757813	852.34228515625	77.73038482666016	1365.16357421875	819.2420043945313	52.13017272949219	1441.4931640625	654.66064453125	974.6055908203125	1285.619018554688	700.4767456054688	172.8164215087891	1416.906494140625	664.7639770507813	174.657958984375	1380.063110351563	696.4298095703125	257.4238586425781	1423.220458984375	658.9278564453125	255.2010955810547	1384.6240234375	749.3718872070313	628.5682983398438	1418.833984375	692.2092895507813	621.0846557617188	1372.74658203125	734.3441162109375	737.1995849609375	1415.00146484375	681.089111328125	730.981201171875	1370.631958007813	788.0038452148438	413.0794677734375	1367.380859375	
116	0.7666666666666667	705.5509643554688	102.9285354614258	1048.63427734375	723.5628051757813	115.4852676391602	1129.913818359375	814.5675659179688	938.3508911132813	1112.317138671875	736.1375122070313	849.5362548828125	1064.9619140625	632.9336547851563	40.13842391967773	1092.469848632813	656.4022216796875	64.25139617919922	1051.218872070313	641.678955078125	87.38545989990234	1091.969482421875	743.195556640625	437.3527221679688	1058.224853515625	757.2947998046875	1002.036865234375	1082.239624023438	746.1514892578125	493.6347351074219	1062.26171875	737.3250732421875	479.4881286621094	1183.4580078125	842.3273315429688	60.06377029418945	1128.688720703125	853.8905639648438	71.91150665283203	1086.376708984375	814.5523071289063	44.35618591308594	1020.463989257813	653.5062255859375	973.6065063476563	1185.0146484375	702.1223754882813	176.7447814941406	1044.67822265625	661.1849975585938	176.6233215332031	1081.91357421875	694.9960327148438	257.0864868164063	1038.825805664063	656.4147338867188	257.4759216308594	1076.202392578125	764.8626708984375	592.7386474609375	1045.458862304688	699.06396484375	589.9254760742188	1077.552368164063	753.7348022460938	702.3406982421875	1039.885009765625	692.3900146484375	700.1513061523438	1071.083740234375	785.4996948242188	414.7306823730469	1099.928344726563	712.1162719726563	101.9924392700195	1413.506958007813	732.6314086914063	115.1132659912109	1333.218627929688	823.3832397460938	940.7670288085938	1348.630249023438	755.6690673828125	851.4371337890625	1401.6201171875	638.3504028320313	40.56941986083984	1370.624877929688	662.5497436523438	61.1885986328125	1410.3779296875	646.9820556640625	91.55002593994141	1369.844360351563	747.367919921875	436.7477416992188	1406.663452148438	772.8552856445313	1003.70166015625	1380.170532226563	743.3861694335938	501.3672485351563	1401.47265625	743.2250366210938	479.5284729003906	1281.630004882813	845.3001098632813	58.99906539916992	1331.319580078125	852.3455810546875	77.72463989257813	1365.161865234375	819.2459106445313	52.12763595581055	1441.494384765625	654.6773681640625	974.62060546875	1285.615478515625	700.4804077148438	172.8209838867188	1416.90966796875	664.7639770507813	174.6654968261719	1380.057983398438	696.4366455078125	257.422607421875	1423.2216796875	658.9361572265625	255.19482421875	1384.621826171875	749.3797607421875	628.5771484375	1418.838500976563	692.2061767578125	621.085693359375	1372.746459960938	734.356201171875	737.1966552734375	1415.0078125	681.0978393554688	730.9890747070313	1370.63134765625	787.9984130859375	413.0805969238281	1367.3896484375	
